<svg width="70" height="70" viewBox="0 0 70 70" fill="none" xmlns="http://www.w3.org/2000/svg">
<g clip-path="url(#clip0_14_2426)">
<path d="M59.749 10.2511C73.4165 23.9186 73.4165 46.0814 59.749 59.7489C46.0815 73.4164 23.9206 73.4164 10.2512 59.7489C-3.41633 46.0814 -3.41633 23.9186 10.2512 10.2511C23.9187 -3.41639 46.0795 -3.41639 59.749 10.2511Z" fill="#FFCB4C"/>
<path d="M37.4869 37.4889C30.693 44.2828 25.3944 47.9967 18.7328 52.4883C17.2142 53.5169 14.9839 56.2392 18.7347 59.9919C26.2344 67.4917 44.2283 68.25 56.2372 56.2411C68.248 44.2303 67.4917 26.2383 59.988 18.7367C56.2372 14.9839 53.513 17.2161 52.4864 18.7367C47.9986 25.3925 44.2828 30.6931 37.4869 37.4889Z" fill="#65471B"/>
<path d="M22.4856 56.2392C22.4856 56.2392 29.9872 52.4884 41.2378 41.2359C52.4903 29.9853 56.2392 22.4856 56.2392 22.4856C56.2392 22.4856 59.9881 33.7381 46.8631 46.8631C33.7381 59.99 22.4856 56.2392 22.4856 56.2392Z" fill="white"/>
<path d="M16.0708 49.0661C15.7832 49.3571 15.411 49.5498 15.0073 49.6165C14.6037 49.6833 14.1892 49.6208 13.8232 49.4379C13.4572 49.255 13.1584 48.9611 12.9695 48.5982C12.7805 48.2353 12.7111 47.8219 12.7711 47.4172C12.8197 47.075 13.827 40.3589 18.165 33.9578C13.057 35.6553 9.24195 39.3945 9.19334 39.4431C8.82848 39.8077 8.33373 40.0124 7.81793 40.0122C7.30213 40.012 6.80752 39.8069 6.44292 39.4421C6.07832 39.0772 5.8736 38.5825 5.87378 38.0667C5.87396 37.5509 6.07904 37.0563 6.4439 36.6917C6.74723 36.3883 13.9922 29.2483 22.9425 29.2483C23.3274 29.2475 23.7039 29.361 24.0242 29.5745C24.3445 29.788 24.5942 30.0919 24.7415 30.4475C24.8888 30.8032 24.9271 31.1945 24.8515 31.572C24.776 31.9494 24.59 32.2959 24.3172 32.5675C17.9745 38.9103 16.6308 47.8781 16.6172 47.9656C16.5602 48.3823 16.3683 48.7688 16.0708 49.0661ZM49.0642 16.0689C48.7683 16.3655 48.3841 16.5579 47.9695 16.6172C47.8781 16.6308 38.8772 18.0075 32.5675 24.3172C32.2956 24.5891 31.9491 24.7742 31.572 24.8492C31.1949 24.9242 30.804 24.8857 30.4487 24.7386C30.0935 24.5914 29.7898 24.3423 29.5762 24.0226C29.3625 23.7029 29.2484 23.327 29.2483 22.9425C29.2483 13.9903 36.3883 6.74723 36.6917 6.4439C37.0581 6.08943 37.5492 5.89309 38.059 5.89716C38.5689 5.90122 39.0567 6.10537 39.4175 6.46564C39.7782 6.8259 39.9831 7.31345 39.9879 7.82328C39.9927 8.33311 39.797 8.82442 39.4431 9.1914C39.3925 9.24195 35.6533 13.055 33.9558 18.1631C40.357 13.825 47.0711 12.8178 47.4133 12.7692C47.8174 12.7113 48.2294 12.782 48.5911 12.9713C48.9527 13.1606 49.2456 13.4589 49.4282 13.824C49.6109 14.189 49.674 14.6023 49.6086 15.0052C49.5433 15.4081 49.3528 15.7803 49.0642 16.0689Z" fill="#65471B"/>
<path d="M58.5297 23.4403C59.7972 23.5947 61.0827 23.4978 62.3127 23.1553C63.5427 22.8128 64.6932 22.2313 65.6984 21.444C66.7036 20.6567 67.5439 19.6791 68.1712 18.567C68.7985 17.4549 69.2006 16.2301 69.3545 14.9625C69.5089 13.6951 69.4121 12.4097 69.0697 11.1797C68.7273 9.94962 68.146 8.79908 67.3589 7.79372C66.5719 6.78836 65.5945 5.94787 64.4826 5.32026C63.3707 4.69264 62.1461 4.29019 60.8786 4.13587C55.5489 3.48837 40.6389 9.50837 40.4036 11.4392C40.1683 13.3681 53.2 22.7889 58.5297 23.4403ZM23.6386 58.3314C23.793 59.5989 23.6961 60.8844 23.3536 62.1144C23.0111 63.3444 22.4295 64.4949 21.6423 65.5001C20.855 66.5054 19.8774 67.3456 18.7653 67.9729C17.6532 68.6002 16.4284 69.0023 15.1608 69.1562C13.8934 69.3106 12.608 69.2138 11.3779 68.8714C10.1479 68.529 8.99737 67.9477 7.99201 67.1606C6.98665 66.3736 6.14617 65.3962 5.51855 64.2843C4.89094 63.1724 4.48848 61.9478 4.33417 60.6803C3.68472 55.3487 9.70667 40.4387 11.6375 40.2034C13.5664 39.97 22.9872 53.0017 23.6386 58.3314Z" fill="#64AADD"/>
</g>
<defs>
<clipPath id="clip0_14_2426">
<rect width="70" height="70" fill="white"/>
</clipPath>
</defs>
</svg>
