<svg width="40" height="40" viewBox="0 0 40 40" fill="none" xmlns="http://www.w3.org/2000/svg">
<g id="ph:play-duotone">
<g id="Group">
<path id="Vector" opacity="0.2" d="M35.6609 18.9548L13.1484 5.18601C12.9606 5.07196 12.7459 5.00946 12.5262 5.00482C12.3065 5.00017 12.0894 5.05354 11.8969 5.15955C11.7043 5.26556 11.5432 5.42046 11.4296 5.60863C11.316 5.79679 11.2541 6.01158 11.25 6.23132V33.7688C11.2541 33.9886 11.316 34.2033 11.4296 34.3915C11.5432 34.5797 11.7043 34.7346 11.8969 34.8406C12.0894 34.9466 12.3065 35 12.5262 34.9953C12.7459 34.9907 12.9606 34.9282 13.1484 34.8141L35.6609 21.0454C35.8408 20.9365 35.9895 20.7831 36.0927 20.6C36.1959 20.4169 36.2501 20.2103 36.2501 20.0001C36.2501 19.7899 36.1959 19.5832 36.0927 19.4001C35.9895 19.217 35.8408 19.0636 35.6609 18.9548Z" fill="#1D3557"/>
<path id="Vector_2" d="M36.3125 22.1109L13.8 35.8828C13.4204 36.1152 12.9857 36.2421 12.5407 36.2503C12.0958 36.2585 11.6566 36.1478 11.2688 35.9296C10.8845 35.7148 10.5645 35.4015 10.3415 35.022C10.1185 34.6425 10.0006 34.2104 10 33.7703V6.22964C10.0029 5.56936 10.2679 4.93724 10.7367 4.47225C11.2055 4.00727 11.8397 3.74746 12.5 3.74995C12.9609 3.75015 13.4128 3.87719 13.8063 4.11714L36.3125 17.889C36.6743 18.1095 36.9732 18.4194 37.1807 18.7888C37.3882 19.1582 37.4971 19.5747 37.4971 19.9984C37.4971 20.4221 37.3882 20.8386 37.1807 21.208C36.9732 21.5774 36.6743 21.8873 36.3125 22.1078V22.1109ZM12.5 6.25933V33.75L34.9734 20L12.5 6.25933Z" fill="#1D3557"/>
</g>
</g>
</svg>
