<svg width="63" height="63" viewBox="0 0 63 63" fill="none" xmlns="http://www.w3.org/2000/svg">
<g id="material-symbols:link" clip-path="url(#clip0_4_233)">
<path id="Vector" d="M36.2981 38.8911L31.1127 44.0765C29.3194 45.8698 27.1583 46.7665 24.6296 46.7665C22.1008 46.7665 19.9406 45.8698 18.1491 44.0765C16.3557 42.2832 15.4591 40.1222 15.4591 37.5934C15.4591 35.0647 16.3557 32.9045 18.1491 31.1129L23.3345 25.9275L25.9272 28.5202L20.7418 33.7056C19.6615 34.7859 19.1213 36.0823 19.1213 37.5947C19.1213 39.1071 19.6615 40.4035 20.7418 41.4838C21.8221 42.5641 23.1184 43.1043 24.6309 43.1043C26.1433 43.1043 27.4396 42.5641 28.52 41.4838L33.7054 36.2984L36.2981 38.8911ZM27.2236 37.5947L24.6309 35.002L35.0018 24.6311L37.5945 27.2238L27.2236 37.5947ZM38.8908 36.2984L36.2981 33.7056L41.4836 28.5202C42.5639 27.4399 43.104 26.1435 43.104 24.6311C43.104 23.1187 42.5639 21.8223 41.4836 20.742C40.4033 19.6617 39.1069 19.1216 37.5945 19.1216C36.0821 19.1216 34.7857 19.6617 33.7054 20.742L28.5199 25.9275L25.9272 23.3347L31.1127 18.1493C32.906 16.356 35.067 15.4593 37.5958 15.4593C40.1246 15.4593 42.2847 16.356 44.0763 18.1493C45.8696 19.9426 46.7663 22.1036 46.7663 24.6324C46.7663 27.1612 45.8696 29.3213 44.0763 31.1129L38.8908 36.2984Z" fill="#1D3557"/>
</g>
<defs>
<clipPath id="clip0_4_233">
<rect width="44" height="44" fill="white" transform="translate(0 31.1128) rotate(-45)"/>
</clipPath>
</defs>
</svg>
