<svg width="106" height="106" viewBox="0 0 106 106" fill="none" xmlns="http://www.w3.org/2000/svg">
<g clip-path="url(#clip0_14_1800)">
<path d="M56.0616 15.9995C56.6327 16.3023 57.0602 16.8196 57.25 17.4375C57.4398 18.0555 57.3763 18.7236 57.0735 19.2948L55.9319 21.4484L64.5463 26.015L65.688 23.8614C65.9907 23.2902 66.508 22.8627 67.126 22.6729C67.744 22.4832 68.412 22.5467 68.9832 22.8494C69.5544 23.1522 69.9819 23.6695 70.1717 24.2875C70.3614 24.9055 70.298 25.5735 69.9952 26.1447L68.8535 28.2983L77.4679 32.8649L78.6096 30.7113C78.9124 30.1402 79.4297 29.7127 80.0476 29.5229C80.6656 29.3331 81.3337 29.3966 81.9049 29.6994C82.476 30.0022 82.9035 30.5195 83.0933 31.1374C83.2831 31.7554 83.2196 32.4235 82.9168 32.9946L81.7752 35.1483C83.4887 36.0566 84.7712 37.6085 85.3405 39.4624C85.9098 41.3164 85.7194 43.3205 84.811 45.0341L79.0205 55.9571C77.334 55.4071 75.5492 55.2248 73.7863 55.4226L80.5038 42.7507C80.8066 42.1796 80.8701 41.5115 80.6803 40.8935C80.4905 40.2755 80.063 39.7583 79.4918 39.4555L49.3413 23.4723C48.7702 23.1695 48.1021 23.106 47.4841 23.2958C46.8661 23.4855 46.3489 23.913 46.0461 24.4842L23.2129 67.5564C22.9101 68.1275 22.8466 68.7956 23.0364 69.4136C23.2262 70.0316 23.6537 70.5488 24.2249 70.8516L30.8881 74.3839L30.8836 74.3925C29.7597 75.6248 29.0632 77.1868 28.8977 78.8464L21.9416 75.1588C20.228 74.2505 18.9455 72.6986 18.3762 70.8447C17.8069 68.9907 17.9973 66.9866 18.9057 65.273L41.7389 22.2009C42.6472 20.4874 44.1991 19.2049 46.053 18.6356C47.907 18.0662 49.9111 18.2567 51.6246 19.165L52.7663 17.0114C53.0691 16.4403 53.5864 16.0128 54.2044 15.823C54.8223 15.6332 55.4904 15.6967 56.0616 15.9995ZM61.6144 57.5666C62.0753 57.8109 62.4241 58.1834 62.6471 58.6161L56.652 60.4536L42.1023 52.7405C41.5311 52.4377 41.1036 51.9205 40.9138 51.3025C40.724 50.6845 40.7875 50.0164 41.0903 49.4453C41.3931 48.8741 41.9104 48.4466 42.5284 48.2568C43.1463 48.067 43.8144 48.1305 44.3856 48.4333L61.6144 57.5666ZM40.8324 65.5028C41.0392 64.9483 41.0373 64.3375 40.827 63.7844C40.6166 63.2313 40.2122 62.7735 39.6892 62.4966L37.5356 61.355C36.9645 61.0522 36.2964 60.9887 35.6784 61.1785C35.0604 61.3682 34.5432 61.7957 34.2404 62.3669C33.9376 62.9381 33.8741 63.6061 34.0639 64.2241C34.2536 64.8421 34.6811 65.3594 35.2523 65.6622L37.4059 66.8038C37.6354 66.9262 37.8829 67.0108 38.1392 67.0546C38.9886 66.462 39.8886 65.9404 40.8324 65.5028ZM51.2355 35.5117C50.6644 35.2089 49.9963 35.1454 49.3783 35.3352C48.7603 35.5249 48.243 35.9524 47.9403 36.5236C47.6375 37.0948 47.574 37.7628 47.7638 38.3808C47.9535 38.9988 48.381 39.5161 48.9522 39.8189L66.1811 48.9521C66.7522 49.2549 67.4203 49.3184 68.0383 49.1286C68.6563 48.9389 69.1735 48.5114 69.4763 47.9402C69.7791 47.369 69.8426 46.701 69.6528 46.083C69.4631 45.465 69.0356 44.9477 68.4644 44.6449L51.2355 35.5117ZM72.9291 60.5575C74.8579 59.9652 76.9431 60.1634 78.7258 61.1084C80.5085 62.0535 81.8428 63.668 82.4351 65.5968C83.0275 67.5256 82.8293 69.6108 81.8843 71.3935C80.9392 73.1762 79.3247 74.5105 77.3959 75.1028L49.1314 83.779C46.7858 84.5003 44.2883 84.5705 41.9059 83.9821L35.9981 82.5221C35.4992 82.399 35.0407 82.1488 34.6674 81.7958C34.294 81.4428 34.0184 80.9991 33.8676 80.5079C33.7168 80.0167 33.6958 79.4948 33.8067 78.9931C33.9176 78.4914 34.1566 78.027 34.5004 77.6451L38.5726 73.1275C40.2146 71.2999 42.3184 69.9542 44.6623 69.238L72.9291 60.5575Z" fill="#EDF6F9"/>
</g>
<defs>
<clipPath id="clip0_14_1800">
<rect width="78" height="78" fill="white" transform="translate(36.8088 0.275757) rotate(27.9287)"/>
</clipPath>
</defs>
</svg>
