<svg width="60" height="60" viewBox="0 0 60 60" fill="none" xmlns="http://www.w3.org/2000/svg">
<path d="M47.875 30C46.5821 30 45.3421 29.4864 44.4279 28.5721C43.5136 27.6579 43 26.4179 43 25.125C43 23.8321 43.5136 22.5921 44.4279 21.6779C45.3421 20.7636 46.5821 20.25 47.875 20.25C49.1679 20.25 50.4079 20.7636 51.3221 21.6779C52.2364 22.5921 52.75 23.8321 52.75 25.125C52.75 26.4179 52.2364 27.6579 51.3221 28.5721C50.4079 29.4864 49.1679 30 47.875 30ZM38.125 17C36.8321 17 35.5921 16.4864 34.6779 15.5721C33.7636 14.6579 33.25 13.4179 33.25 12.125C33.25 10.8321 33.7636 9.59209 34.6779 8.67785C35.5921 7.76361 36.8321 7.25 38.125 7.25C39.4179 7.25 40.6579 7.76361 41.5721 8.67785C42.4864 9.59209 43 10.8321 43 12.125C43 13.4179 42.4864 14.6579 41.5721 15.5721C40.6579 16.4864 39.4179 17 38.125 17ZM21.875 17C20.5821 17 19.3421 16.4864 18.4279 15.5721C17.5136 14.6579 17 13.4179 17 12.125C17 10.8321 17.5136 9.59209 18.4279 8.67785C19.3421 7.76361 20.5821 7.25 21.875 7.25C23.1679 7.25 24.4079 7.76361 25.3221 8.67785C26.2364 9.59209 26.75 10.8321 26.75 12.125C26.75 13.4179 26.2364 14.6579 25.3221 15.5721C24.4079 16.4864 23.1679 17 21.875 17ZM12.125 30C10.8321 30 9.59209 29.4864 8.67785 28.5721C7.76361 27.6579 7.25 26.4179 7.25 25.125C7.25 23.8321 7.76361 22.5921 8.67785 21.6779C9.59209 20.7636 10.8321 20.25 12.125 20.25C13.4179 20.25 14.6579 20.7636 15.5721 21.6779C16.4864 22.5921 17 23.8321 17 25.125C17 26.4179 16.4864 27.6579 15.5721 28.5721C14.6579 29.4864 13.4179 30 12.125 30ZM30 0.75C22.2424 0.75 14.8026 3.83169 9.31713 9.31713C3.83169 14.8026 0.75 22.2424 0.75 30C0.75 37.7576 3.83169 45.1974 9.31713 50.6829C14.8026 56.1683 22.2424 59.25 30 59.25C31.2929 59.25 32.5329 58.7364 33.4471 57.8221C34.3614 56.9079 34.875 55.6679 34.875 54.375C34.875 53.1075 34.3875 51.97 33.6075 51.125C32.86 50.2475 32.3725 49.11 32.3725 47.875C32.3725 46.5821 32.8861 45.3421 33.8004 44.4279C34.7146 43.5136 35.9546 43 37.2475 43H43C47.3098 43 51.443 41.288 54.4905 38.2405C57.538 35.193 59.25 31.0598 59.25 26.75C59.25 12.385 46.1525 0.75 30 0.75Z" fill="#EDF6F9"/>
</svg>
