<svg width="126" height="126" viewBox="0 0 126 126" fill="none" xmlns="http://www.w3.org/2000/svg">
<path fill-rule="evenodd" clip-rule="evenodd" d="M74.025 12.5528C77.874 8.78066 83.0563 6.68008 88.4455 6.70754C93.8347 6.735 98.9953 8.88829 102.806 12.6994C106.616 16.5106 108.769 21.6716 108.795 27.0608C108.822 32.45 106.72 37.6319 102.947 41.4803L63.0787 81.3488C60.8317 83.5958 59.4562 84.9713 57.9337 86.163C56.1308 87.5677 54.1803 88.7718 52.1167 89.754C50.3632 90.5888 48.5205 91.203 45.507 92.2058L31.479 96.8835L28.1085 98.007C26.6298 98.501 25.0428 98.5732 23.5254 98.2155C22.008 97.8578 20.6203 97.0844 19.5179 95.9821C18.4155 94.8797 17.6421 93.492 17.2845 91.9746C16.9268 90.4572 16.999 88.8702 17.493 87.3915L23.2942 69.993C24.297 66.9795 24.9112 65.1368 25.746 63.3833C26.73 61.3211 27.9359 59.3724 29.3422 57.5715C30.534 56.0438 31.9042 54.6683 34.1512 52.4265L74.025 12.5528ZM31.29 88.641L26.859 84.2048L30.681 72.7335C31.794 69.3945 32.256 68.0348 32.8545 66.7748C33.5895 65.226 34.4977 63.7665 35.5477 62.4173C36.4087 61.3148 37.4167 60.2963 39.9052 57.8025L70.833 26.88C72.44 30.8949 74.85 34.5394 77.9152 37.59C80.9663 40.6534 84.6107 43.0615 88.6252 44.667L57.6975 75.5895C55.2037 78.0833 54.1905 79.0913 53.088 79.947C51.7364 81.0001 50.2755 81.9048 48.7305 82.6455C47.4705 83.244 46.1055 83.706 42.7665 84.819L31.2952 88.6463L31.29 88.641ZM94.899 38.388C94.0901 38.2093 93.2925 37.9831 92.5102 37.7108C89.1084 36.5215 86.0208 34.5756 83.4802 32.0198C80.9253 29.4785 78.9795 26.3911 77.7892 22.9898C77.5151 22.2076 77.2872 21.41 77.1067 20.601L79.59 18.123C81.9617 15.8279 85.1404 14.5568 88.4407 14.5838C91.7411 14.6109 94.8985 15.9339 97.2323 18.2677C99.566 20.6014 100.889 23.7589 100.916 27.0592C100.943 30.3596 99.6721 33.5383 97.377 35.91L94.899 38.388ZM17.0625 115.5C17.0625 114.456 17.4773 113.454 18.2157 112.716C18.9541 111.977 19.9557 111.563 21 111.563H105V119.438H21C19.9557 119.438 18.9541 119.023 18.2157 118.284C17.4773 117.546 17.0625 116.544 17.0625 115.5Z" fill="#EDF6F9"/>
</svg>
