<svg width="70" height="70" viewBox="0 0 70 70" fill="none" xmlns="http://www.w3.org/2000/svg">
<path d="M35 66.1461C53.2561 66.1461 68.0556 51.3467 68.0556 33.0906C68.0556 14.8345 53.2561 0.0350342 35 0.0350342C16.7439 0.0350342 1.94444 14.8345 1.94444 33.0906C1.94444 51.3467 16.7439 66.1461 35 66.1461Z" fill="#FFCB4C"/>
<path d="M28.2411 40.9033C27.9496 40.6734 27.7375 40.3578 27.6344 40.0011C27.5695 39.7954 27.548 39.5785 27.5715 39.3641C27.5949 39.1497 27.6628 38.9425 27.7707 38.7557C27.8786 38.569 28.0243 38.4068 28.1983 38.2794C28.3724 38.152 28.571 38.0622 28.7817 38.0158C37.5861 36.0306 43.5147 40.6661 43.7656 40.8644C44.5122 41.4594 44.6581 42.5075 44.1019 43.2075C43.5458 43.9036 42.4919 43.9872 41.7472 43.3961C41.5333 43.2328 36.8414 39.6569 29.7267 41.2611C29.4681 41.3163 29.2004 41.3128 28.9433 41.2508C28.6862 41.1889 28.4463 41.0702 28.2411 40.9033Z" fill="#65471B"/>
<path d="M25.5092 26.8916C27.7912 26.8916 29.6411 24.5794 29.6411 21.7272C29.6411 18.8749 27.7912 16.5627 25.5092 16.5627C23.2272 16.5627 21.3772 18.8749 21.3772 21.7272C21.3772 24.5794 23.2272 26.8916 25.5092 26.8916Z" fill="#65471B"/>
<path d="M47.3958 28.9567C49.6778 28.9567 51.5278 26.6445 51.5278 23.7923C51.5278 20.94 49.6778 18.6278 47.3958 18.6278C45.1138 18.6278 43.2639 20.94 43.2639 23.7923C43.2639 26.6445 45.1138 28.9567 47.3958 28.9567Z" fill="#65471B"/>
<path d="M33.5922 68.3452C33.5922 68.3452 36.0519 67.5461 36.3708 65.7164C36.7072 63.8264 35.1575 63.4472 35.1575 63.4472C35.1575 63.4472 37.1817 63.0427 37.4364 60.7716C37.6756 58.6308 35.7622 58.1214 35.7622 58.1214C35.7622 58.1214 37.6483 57.3436 37.7378 55.1288C37.8117 53.2641 35.8031 52.3522 35.8031 52.3522C35.8031 52.3522 45.5992 49.978 46.6064 49.7447C47.6097 49.5114 49.1731 48.5489 48.685 46.4508C48.2008 44.3508 46.3439 44.2769 45.3853 44.5005C44.4247 44.7241 32.2719 47.5455 28.0797 48.5216L25.2817 49.1711C24.2317 49.418 23.7553 48.9572 24.4961 48.1755C25.4839 47.1333 26.1158 45.9802 26.3356 44.0669C26.5669 42.0544 25.8844 39.5694 25.4936 38.605C24.7664 36.8141 23.5394 35.3986 22.1219 34.9125C19.9111 34.1541 18.34 35.5366 19.1236 37.9477C20.2981 41.5527 19.5281 44.5102 17.5039 46.2952C12.7419 50.4894 10.5272 53.48 12.0011 59.8539C13.6111 66.8052 20.5119 71.2794 27.4633 69.6694L33.5922 68.3452Z" fill="#F19020"/>
<path d="M18.0756 12.3491C17.7482 12.175 17.4827 11.9041 17.3153 11.5733C17.214 11.3829 17.1533 11.1736 17.1372 10.9585C17.1211 10.7435 17.1499 10.5274 17.2218 10.3241C17.2937 10.1208 17.407 9.93462 17.5547 9.77744C17.7023 9.62026 17.881 9.49549 18.0794 9.41107C26.3744 5.85079 33.0497 9.32745 33.3297 9.47718C34.1717 9.92634 34.5119 10.9297 34.09 11.7211C33.67 12.5086 32.6511 12.7827 31.8092 12.3394C31.57 12.2169 26.3025 9.55495 19.6019 12.4308C19.3574 12.5315 19.0936 12.5764 18.8295 12.5622C18.5655 12.5481 18.3079 12.4753 18.0756 12.3491ZM41.6714 19.6408C41.3575 19.445 41.1117 19.1571 40.9675 18.8163C40.879 18.6194 40.8324 18.4061 40.8308 18.1901C40.8292 17.9742 40.8726 17.7603 40.9582 17.562C41.0438 17.3637 41.1697 17.1854 41.328 17.0385C41.4863 16.8916 41.6734 16.7792 41.8775 16.7086C50.3961 13.7219 56.8206 17.6419 57.0889 17.8111C57.8958 18.3166 58.1681 19.3413 57.6956 20.1016C57.225 20.86 56.1867 21.0641 55.3797 20.5644C55.1464 20.4244 50.0772 17.4125 43.1939 19.8275C42.9421 19.9106 42.675 19.937 42.4117 19.9048C42.1485 19.8725 41.8957 19.7823 41.6714 19.6408Z" fill="#65471B"/>
</svg>
